<svg width="115" height="35" viewBox="0 0 115 35" fill="none" xmlns="http://www.w3.org/2000/svg">
<g clip-path="url(#clip0_24_318)">
<path fill-rule="evenodd" clip-rule="evenodd" d="M71.3378 27.2203C64.6856 32.1289 55.0096 34.7441 46.6641 34.7441C34.9723 34.7441 24.4901 30.439 16.5074 23.2773C15.9027 22.714 16.4268 21.9495 17.1928 22.3921C25.7802 27.3812 36.3834 30.3585 47.3495 30.3585C54.7274 30.3585 62.8713 28.8296 70.3702 25.6511C71.4991 25.2085 72.4263 26.4156 71.3378 27.2203Z" fill="#CFCFDE"/>
<path fill-rule="evenodd" clip-rule="evenodd" d="M74.1196 24.0417C73.273 22.9554 68.4753 23.5187 66.3386 23.8003C65.6935 23.8808 65.5726 23.3175 66.1773 22.9152C70.0074 20.2194 76.2564 21.0241 76.9821 21.9093C77.7078 22.7945 76.7805 29.0711 73.1924 32.0484C72.6279 32.491 72.1038 32.2496 72.3457 31.6461C73.152 29.6343 74.9663 25.1683 74.1196 24.0417Z" fill="#CFCFDE"/>
<path fill-rule="evenodd" clip-rule="evenodd" d="M66.4595 4.00492V1.38967C66.4595 0.987325 66.7417 0.745915 67.1046 0.745915H78.7963C79.1592 0.745915 79.4817 1.02756 79.4817 1.38967V3.60257C79.4817 3.96468 79.1592 4.4475 78.5948 5.25219L72.5473 13.8624C74.805 13.8222 77.1837 14.144 79.1995 15.2706C79.643 15.512 79.7639 15.9144 79.8043 16.2765V19.0527C79.8043 19.455 79.4011 19.8976 78.9576 19.6562C75.3695 17.7652 70.5718 17.564 66.6208 19.6964C66.2176 19.8976 65.7741 19.4952 65.7741 19.0929V16.4374C65.7741 16.0351 65.7741 15.3108 66.2176 14.6671L73.2327 4.64868H67.1449C66.782 4.64868 66.4595 4.36703 66.4595 4.00492ZM23.845 20.2195H20.2972C19.9746 20.1792 19.6924 19.9378 19.6521 19.6159V1.42991C19.6521 1.0678 19.9746 0.786152 20.3375 0.786152H23.6434C24.0063 0.786152 24.2482 1.06779 24.2885 1.38967V3.76351H24.3691C25.2158 1.47014 26.8687 0.383806 29.0458 0.383806C31.2632 0.383806 32.6743 1.47014 33.6419 3.76351C34.4886 1.47014 36.4641 0.383806 38.5605 0.383806C40.0522 0.383806 41.6649 0.987325 42.6728 2.39554C43.8017 3.92445 43.5598 6.13736 43.5598 8.10885V19.6159C43.5598 19.9781 43.2372 20.2597 42.8744 20.2597H39.3668C39.004 20.2195 38.7218 19.9378 38.7218 19.6159V9.95964C38.7218 9.19518 38.8024 7.26392 38.6412 6.53969C38.3589 5.33266 37.5929 4.97055 36.5447 4.97055C35.698 4.97055 34.7708 5.53384 34.4079 6.45923C34.0451 7.38463 34.0854 8.91354 34.0854 9.95964V19.6159C34.0854 19.9781 33.7629 20.2597 33.4 20.2597H29.8522C29.4893 20.2195 29.2071 19.9378 29.2071 19.6159V9.95964C29.2071 7.94791 29.5296 4.93031 27.03 4.93031C24.4901 4.93031 24.5707 7.8272 24.5707 9.95964V19.6159C24.5304 19.9378 24.2482 20.2195 23.845 20.2195ZM89.5609 0.383806C94.8423 0.383806 97.7048 4.89008 97.7048 10.6436C97.7048 16.196 94.5601 20.6218 89.5609 20.6218C84.4003 20.6218 81.5782 16.1155 81.5782 10.4827C81.5379 4.80961 84.4003 0.383806 89.5609 0.383806ZM89.5609 4.12562C86.9403 4.12562 86.779 7.70651 86.779 9.91941C86.779 12.1323 86.7387 16.88 89.5205 16.88C92.262 16.88 92.4233 13.0577 92.4233 10.7241C92.4233 9.19519 92.3427 7.3444 91.8992 5.89595C91.496 4.60844 90.6897 4.12562 89.5609 4.12562ZM104.518 20.2195H100.97C100.608 20.1792 100.325 19.8976 100.325 19.5757V1.34943C100.366 1.02756 100.648 0.745915 101.011 0.745915H104.317C104.639 0.745915 104.881 0.98733 104.962 1.26897V4.04516H105.042C106.05 1.55061 107.421 0.383806 109.88 0.383806C111.453 0.383806 113.025 0.947085 114.033 2.51623C114.96 3.96468 114.96 6.41899 114.96 8.18932V19.6562C114.92 19.9781 114.638 20.2195 114.275 20.2195H110.727C110.404 20.1792 110.122 19.9378 110.082 19.6562V9.75846C110.082 7.74673 110.324 4.84985 107.865 4.84985C107.018 4.84985 106.212 5.41314 105.808 6.2983C105.325 7.42487 105.244 8.51119 105.244 9.75846V19.5757C105.204 19.9378 104.881 20.2195 104.518 20.2195ZM57.1464 11.5288C57.1464 12.8968 57.1867 14.0636 56.5013 15.3108C55.9369 16.3167 55.0499 16.9202 54.042 16.9202C52.6713 16.9202 51.865 15.8741 51.865 14.3452C51.865 11.3276 54.5662 10.7643 57.1464 10.7643V11.5288ZM60.7346 20.1792C60.4927 20.3804 60.1701 20.4206 59.8879 20.2597C58.7187 19.2941 58.4768 18.8113 57.8318 17.8859C55.8966 19.8574 54.4855 20.4609 51.9859 20.4609C49.0025 20.4609 46.6641 18.6101 46.6641 14.9487C46.6641 12.0518 48.2365 10.1206 50.4539 9.15494C52.3891 8.31002 55.0903 8.14909 57.1464 7.90768V7.4651C57.1464 6.62017 57.227 5.61431 56.7029 4.89009C56.2594 4.24633 55.4531 3.96468 54.7274 3.96468C53.3567 3.96468 52.1472 4.64868 51.865 6.09712C51.7843 6.419 51.5827 6.74087 51.2602 6.74087L47.8333 6.37876C47.5511 6.29829 47.2286 6.09712 47.3092 5.65454C48.1155 1.47014 51.8649 0.22287 55.2515 0.22287C56.9851 0.22287 59.2429 0.665448 60.6136 1.99319C62.3472 3.60257 62.186 5.77525 62.186 8.10885V13.621C62.186 15.2706 62.8713 15.9948 63.5164 16.9202C63.7583 17.2421 63.7986 17.6444 63.5164 17.8456C62.7504 18.4491 61.4603 19.5757 60.7346 20.1792ZM10.5809 11.5288C10.5809 12.8968 10.6212 14.0636 9.93582 15.3108C9.37139 16.3167 8.48443 16.9202 7.47652 16.9202C6.10576 16.9202 5.29943 15.8741 5.29943 14.3452C5.29943 11.3276 8.00064 10.7643 10.5809 10.7643V11.5288ZM14.1287 20.1792C13.8868 20.3804 13.5643 20.4206 13.2821 20.2597C12.1129 19.2941 11.871 18.8113 11.2259 17.8859C9.29076 19.8574 7.87968 20.4609 5.38006 20.4609C2.39664 20.4609 0.0582886 18.6101 0.0582886 14.9487C0.0582886 12.0518 1.63063 10.1206 3.84803 9.15494C5.78322 8.31002 8.48443 8.14909 10.5406 7.90768V7.4651C10.5406 6.62017 10.6212 5.61431 10.0971 4.89009C9.65361 4.24633 8.84728 3.96468 8.12158 3.96468C6.75082 3.96468 5.54133 4.64868 5.25911 6.09712C5.17848 6.419 4.9769 6.74087 4.65436 6.74087L1.22746 6.37876C0.945248 6.29829 0.622722 6.09712 0.703355 5.65454C1.50968 1.47014 5.25911 0.22287 8.6457 0.22287C10.3793 0.22287 12.637 0.665448 14.0078 1.99319C15.7414 3.60257 15.5801 5.77525 15.5801 8.10885V13.621C15.5801 15.2706 16.2655 15.9948 16.9106 16.9202C17.1525 17.2421 17.1928 17.6444 16.9106 17.8456C16.1446 18.4491 14.8544 19.5757 14.1287 20.1792Z" fill="#CFCFDE"/>
</g>
<defs>
<clipPath id="clip0_24_318">
<rect width="114.907" height="34.5213" fill="white" transform="translate(114.963 34.7441) rotate(-180)"/>
</clipPath>
</defs>
</svg>
