<svg width="122" height="39" viewBox="0 0 122 39" fill="none" xmlns="http://www.w3.org/2000/svg">
<g clip-path="url(#clip0_24_314)">
<path d="M64.5508 10.1809C64.5508 11.5287 63.4577 12.614 62.101 12.614C60.7444 12.614 59.652 11.5287 59.652 10.1809C59.652 8.83315 60.7071 7.74787 62.101 7.74787C63.4961 7.78527 64.5508 8.87092 64.5508 10.1809ZM54.452 15.0852V15.6843C54.452 15.6843 53.2844 14.1862 50.7973 14.1862C46.6905 14.1862 43.4871 17.2935 43.4871 21.5983C43.4871 25.8661 46.6528 29.0105 50.7973 29.0105C53.322 29.0105 54.452 27.4757 54.452 27.4757V28.1118C54.452 28.4114 54.6786 28.6354 54.9798 28.6354H58.0315V14.5594H54.9798C54.6786 14.5605 54.452 14.8231 54.452 15.0852ZM54.452 24.1066C53.8874 24.9304 52.7566 25.6417 51.4003 25.6417C48.9889 25.6417 47.1422 24.1444 47.1422 21.5983C47.1422 19.0527 48.9889 17.5553 51.4003 17.5553C52.7193 17.5553 53.925 18.304 54.452 19.0901V24.1066ZM60.2927 14.5605H63.9098V28.6365H60.2927V14.5605ZM114.327 14.1858C111.84 14.1858 110.671 15.684 110.671 15.684V7.78527H107.054V28.6365H110.107C110.408 28.6365 110.634 28.3744 110.634 28.1122V27.4761C110.634 27.4761 111.802 29.0109 114.289 29.0109C118.396 29.0109 121.599 25.8672 121.599 21.5995C121.599 17.3317 118.396 14.1858 114.327 14.1858ZM113.724 25.604C112.329 25.604 111.237 24.8934 110.671 24.0692V19.0527C111.237 18.304 112.443 17.5179 113.724 17.5179C116.135 17.5179 117.982 19.0153 117.982 21.5609C117.982 24.1066 116.136 25.604 113.724 25.604ZM105.171 20.2887V28.6739H101.553V20.7001C101.553 18.3796 100.799 17.4431 98.7658 17.4431C97.6734 17.4431 96.5426 18.0048 95.8255 18.8287V28.6369H92.2092V14.5609H95.0719C95.3735 14.5609 95.5997 14.8231 95.5997 15.0852V15.6843C96.6548 14.5983 98.0487 14.1862 99.4426 14.1862C101.025 14.1862 102.344 14.6361 103.4 15.5344C104.68 16.5826 105.171 17.93 105.171 20.2887ZM83.4283 14.1858C80.942 14.1858 79.7736 15.684 79.7736 15.684V7.78527H76.1565V28.6365H79.2082C79.5097 28.6365 79.7359 28.3744 79.7359 28.1122V27.4761C79.7359 27.4761 80.9043 29.0109 83.3906 29.0109C87.4982 29.0109 90.7009 25.8672 90.7009 21.5995C90.7385 17.3313 87.5359 14.1858 83.4283 14.1858ZM82.8252 25.604C81.4313 25.604 80.3389 24.8934 79.7736 24.0692V19.0527C80.3389 18.304 81.5446 17.5179 82.8252 17.5179C85.2374 17.5179 87.0834 19.0153 87.0834 21.5609C87.0834 24.1066 85.2374 25.604 82.8252 25.604ZM73.0287 14.1858C74.1211 14.1858 74.6865 14.3736 74.6865 14.3736V17.7049C74.6865 17.7049 71.6721 16.6941 69.7884 18.8283V28.6735H66.1706V14.5605H69.223C69.5246 14.5605 69.75 14.8227 69.75 15.0849V15.684C70.4291 14.8975 71.8987 14.1858 73.0287 14.1858ZM35.4616 27.3635C35.2734 26.9144 35.0848 26.4278 34.8966 26.0157C34.5947 25.3422 34.2932 24.7053 34.0301 24.1066L33.9925 24.0692C31.3921 18.4536 28.6043 12.764 25.6647 7.14915L25.5518 6.92401C25.2427 6.34153 24.9414 5.75497 24.648 5.16447C24.2708 4.4902 23.8944 3.77964 23.2914 3.10537C22.0857 1.60798 20.3522 0.784119 18.5062 0.784119C16.6218 0.784119 14.9264 1.60799 13.6835 3.03021C13.1181 3.70373 12.7032 4.41503 12.3268 5.08931C12.0327 5.67944 11.7314 6.26599 11.423 6.84884L11.3097 7.07397C8.4082 12.6888 5.58236 18.3788 2.98237 23.994L2.94436 24.0684C2.68086 24.6683 2.37896 25.3044 2.07744 25.9776C1.88923 26.3897 1.70102 26.8388 1.5128 27.3254C1.02269 28.7102 0.87174 30.0206 1.06071 31.3688C1.47515 34.1766 3.35879 36.5341 5.95915 37.5831C6.93899 37.9952 7.95648 38.1822 9.01123 38.1822C9.31275 38.1822 9.68918 38.1448 9.99108 38.107C11.2348 37.9574 12.5158 37.546 13.7595 36.8347C15.3043 35.9735 16.7739 34.7386 18.4317 32.9417C20.0895 34.7386 21.5967 35.9735 23.1039 36.8347C24.348 37.546 25.6286 37.9574 26.8719 38.107C27.1735 38.1452 27.5506 38.1822 27.8522 38.1822C28.9073 38.1822 29.9621 37.9952 30.9039 37.5831C33.5419 36.5341 35.3879 34.1392 35.8027 31.3688C36.1019 30.0587 35.9514 28.7491 35.4616 27.3635ZM18.4682 29.31C16.4333 26.7644 15.1142 24.3687 14.6625 22.3478C14.4743 21.4865 14.4363 20.7378 14.5496 20.0639C14.6245 19.4648 14.8511 18.9405 15.1526 18.4914C15.8686 17.4813 17.0743 16.8444 18.4686 16.8444C19.8633 16.8444 21.1066 17.4435 21.7849 18.4914C22.0864 18.9405 22.3123 19.4652 22.3883 20.0639C22.5009 20.7382 22.4632 21.5239 22.275 22.3478C21.8214 24.3313 20.5024 26.7274 18.4682 29.31ZM33.502 31.0696C33.2385 33.0161 31.9195 34.7012 30.0735 35.4499C29.1693 35.8239 28.1891 35.9365 27.21 35.8239C26.2682 35.7113 25.3256 35.4118 24.3465 34.8508C22.9899 34.1014 21.6336 32.9417 20.0507 31.2192C22.5374 28.1874 24.0446 25.4166 24.61 22.9465C24.8739 21.7857 24.9119 20.7378 24.7982 19.764C24.648 18.8283 24.3085 17.9671 23.7811 17.2184C22.6123 15.5332 20.6526 14.5605 18.4678 14.5605C16.2831 14.5605 14.3234 15.5714 13.1553 17.2184C12.6279 17.9671 12.2884 18.8283 12.1378 19.764C11.9873 20.7378 12.0245 21.8231 12.326 22.9465C12.8911 25.4166 14.4359 28.2244 16.885 31.2566C15.3401 32.9787 13.9458 34.1395 12.5892 34.8882C11.6093 35.4499 10.6679 35.7495 9.72607 35.8613C8.70896 35.9739 7.72875 35.8239 6.86221 35.4873C5.01621 34.7386 3.69721 33.0535 3.43371 31.107C3.32078 30.1713 3.39569 29.2356 3.77287 28.1874C3.88542 27.8126 4.07439 27.4387 4.2626 26.9895C4.52648 26.3904 4.82724 25.7536 5.12914 25.1174L5.16716 25.043C7.76677 19.4648 10.555 13.7748 13.4565 8.23479L13.5694 8.00966C13.8713 7.4487 14.1728 6.84959 14.474 6.28788C14.7755 5.68878 15.1142 5.12707 15.5291 4.64016C16.3203 3.74262 17.3751 3.25533 18.5435 3.25533C19.7119 3.25533 20.7667 3.74262 21.5579 4.64016C21.9728 5.12819 22.3115 5.6899 22.6131 6.28788C22.9149 6.84959 23.2165 7.4487 23.5172 8.00966L23.6305 8.23479C26.4878 13.7978 29.239 19.4141 31.8826 25.0804V25.1178C32.1845 25.7177 32.448 26.3908 32.7495 26.9907C32.9377 27.4391 33.1263 27.813 33.2392 28.1878C33.54 29.1601 33.6529 30.0965 33.502 31.0696Z" fill="#CFCFDE"/>
</g>
<defs>
<clipPath id="clip0_24_314">
<rect width="120.652" height="37.3981" fill="white" transform="translate(0.962708 0.784485)"/>
</clipPath>
</defs>
</svg>
