<svg width="145" height="29" viewBox="0 0 145 29" fill="none" xmlns="http://www.w3.org/2000/svg">
<path d="M74.6201 14.0718C73.4259 14.0718 72.5651 14.4653 71.6923 14.8663V23.9389C72.5283 24.0189 73.0076 24.0189 73.8008 24.0189C76.667 24.0189 77.0599 22.6997 77.0599 20.8577V16.5246C77.0599 15.1643 76.6108 14.0718 74.6201 14.0718ZM55.5847 13.5767C53.5961 13.5767 53.1422 14.6739 53.1422 16.0328V16.7964H58.0246V16.0328C58.0246 14.6739 57.5707 13.5767 55.5847 13.5767ZM18.7096 23.0199C18.7096 24.095 19.2143 24.6533 20.3281 24.6533C21.5229 24.6533 22.2304 24.2618 23.1026 23.8595V21.7074H20.4901C19.2531 21.7074 18.7096 21.9388 18.7096 23.0199ZM93.1367 14.0718C91.1446 14.0718 90.4545 15.1643 90.4545 16.5246V21.4888C90.4545 22.8524 91.1446 23.9483 93.1367 23.9483C95.1233 23.9483 95.8188 22.8524 95.8188 21.4888V16.5246C95.8181 15.1643 95.1227 14.0718 93.1367 14.0718ZM8.94757 28.5862H3.09198V14.3416H0.166199V9.43324H3.09265V6.48529C3.09265 2.48047 4.74397 0.0996399 9.43754 0.0996399H13.3453V5.0093H10.9028C9.07542 5.0093 8.95493 5.6955 8.95493 6.97572L8.94757 9.43257H13.3721L12.8546 14.3409H8.94757V28.5862ZM28.9595 28.6232H24.0792L23.8683 27.3826C21.64 28.6232 19.6513 28.8243 18.3394 28.8243C14.7603 28.8243 12.8553 26.4213 12.8553 23.098C12.8553 19.1772 15.0783 17.7779 19.0549 17.7779H23.1026V16.9303C23.1026 14.9289 22.8743 14.3416 19.812 14.3416H14.8052L15.2945 9.43324H20.7672C27.4862 9.43324 28.9595 11.5665 28.9595 16.97V28.6232ZM45.555 14.7015C42.5181 14.1781 41.6459 14.063 40.1847 14.063C37.5601 14.063 36.7669 14.645 36.7669 16.8852V21.1228C36.7669 23.363 37.5601 23.9476 40.1847 23.9476C41.6459 23.9476 42.5181 23.8306 45.555 23.3052V28.0931C42.895 28.6925 41.162 28.8499 39.6974 28.8499C33.4108 28.8499 30.912 25.5272 30.912 20.7272V17.2888C30.912 12.4848 33.4108 9.15608 39.6974 9.15608C41.162 9.15608 42.895 9.31417 45.555 9.91627V14.7015ZM63.8795 20.7272H53.1416V21.1228C53.1416 23.363 53.9354 23.9476 56.5593 23.9476C58.9182 23.9476 60.358 23.8306 63.3895 23.3052V28.0931C60.4657 28.6925 58.9423 28.8499 56.074 28.8499C49.7867 28.8499 47.2867 25.5272 47.2867 20.7272V16.7957C47.2867 12.5958 49.1415 9.15608 55.5841 9.15608C62.0267 9.15608 63.8795 12.5561 63.8795 16.7957V20.7272ZM82.9142 20.818C82.9142 25.4573 81.5948 28.8411 73.6027 28.8411C70.7164 28.8411 69.0235 28.5862 65.838 28.0937V1.57429L71.6916 0.59276V9.86918C72.9567 9.39692 74.594 9.15675 76.084 9.15675C81.9382 9.15675 82.9135 11.7946 82.9135 16.0335V20.818H82.9142ZM101.678 20.9189C101.678 24.9211 100.034 28.8028 93.1561 28.8028C86.2744 28.8028 84.5996 24.9211 84.5996 20.9189V17.0547C84.5996 13.0506 86.2744 9.16818 93.1561 9.16818C100.034 9.16818 101.678 13.0506 101.678 17.0547V20.9189ZM120.43 20.9189C120.43 24.9211 118.784 28.8028 111.907 28.8028C105.025 28.8028 103.35 24.9211 103.35 20.9189V17.0547C103.35 13.0506 105.025 9.16818 111.907 9.16818C118.784 9.16818 120.43 13.0506 120.43 17.0547V20.9189ZM139.673 28.5862H133.329L127.962 19.5829V28.5862H122.107V1.57361L127.962 0.592086V17.9818L133.329 9.43324H139.673L133.815 18.7621L139.673 28.5862ZM111.887 14.0718C109.898 14.0718 109.208 15.1643 109.208 16.5246V21.4888C109.208 22.8524 109.898 23.9483 111.887 23.9483C113.873 23.9483 114.576 22.8524 114.576 21.4888V16.5246C114.576 15.1643 113.873 14.0718 111.887 14.0718ZM143.016 25.2265C144.002 25.2265 144.787 26.0345 144.787 27.0436C144.787 28.0682 144.001 28.8674 143.008 28.8674C142.02 28.8674 141.219 28.0682 141.219 27.0436C141.219 26.0345 142.02 25.2265 143.008 25.2265H143.016ZM143.008 25.5091C142.214 25.5091 141.564 26.1959 141.564 27.0436C141.564 27.9067 142.214 28.5848 143.016 28.5848C143.817 28.5929 144.458 27.9067 144.458 27.0517C144.458 26.1966 143.817 25.5091 143.016 25.5091H143.008ZM142.672 28.1011H142.35V26.0735C142.519 26.0499 142.68 26.0264 142.921 26.0264C143.226 26.0264 143.425 26.091 143.548 26.1791C143.666 26.2686 143.73 26.4051 143.73 26.5982C143.73 26.866 143.554 27.0268 143.338 27.092V27.1075C143.514 27.1405 143.634 27.3006 143.675 27.5986C143.722 27.9141 143.771 28.0345 143.802 28.1005H143.465C143.418 28.0345 143.369 27.8495 143.329 27.5824C143.282 27.3248 143.152 27.2279 142.895 27.2279H142.672V28.1011H142.672ZM142.672 26.979H142.904C143.168 26.979 143.392 26.8814 143.392 26.6305C143.392 26.4529 143.265 26.276 142.904 26.276C142.799 26.276 142.726 26.2841 142.672 26.2915V26.979Z" fill="#CFCFDE"/>
</svg>
