<svg width="127" height="41" viewBox="0 0 127 41" fill="none" xmlns="http://www.w3.org/2000/svg">
<g clip-path="url(#clip0_24_305)">
<path d="M15.6849 0.00454712H16.8042C20.6902 0.0887831 24.5128 1.64715 27.2584 4.40588C26.2447 5.43777 25.2098 6.42754 24.2172 7.45943C22.6754 6.06954 20.8169 4.99553 18.7894 4.61647C15.7905 3.9847 12.5592 4.55329 10.0459 6.25907C7.3004 8.04909 5.44188 11.0816 5.04061 14.3247C4.5971 17.5256 5.50524 20.8951 7.59608 23.38C9.60244 25.8018 12.6648 27.3181 15.8327 27.4234C18.7894 27.5918 21.8729 26.6863 24.0271 24.6225C25.7167 23.1695 26.4981 20.9583 26.7515 18.8102C23.2457 18.8102 19.7398 18.8313 16.234 18.8102V14.4721H30.9966C31.7569 19.1261 30.6586 24.3698 27.1106 27.6971C24.7452 30.0557 21.4716 31.4456 18.1347 31.7194C14.9034 32.0353 11.5666 31.4246 8.69429 29.8662C5.2518 28.0341 2.50626 24.9384 1.15461 21.2952C-0.112564 17.9468 -0.133684 14.1562 1.04901 10.7868C2.12611 7.71214 4.19583 4.99553 6.85689 3.10022C9.41236 1.22597 12.5169 0.194078 15.6849 0.00454712Z" fill="#CFCFDE"/>
<path d="M100.374 1.09872H104.894V31.171C103.395 31.171 101.874 31.192 100.374 31.1499C100.396 21.1469 100.374 11.1228 100.374 1.09872Z" fill="#CFCFDE"/>
<path d="M41.0496 11.5229C43.8374 10.9965 46.8575 11.5861 49.1595 13.2498C51.2503 14.7239 52.7076 17.0404 53.1511 19.5675C53.7213 22.4947 53.0033 25.6956 51.1025 28.0121C49.0539 30.6024 45.6959 31.9923 42.4224 31.7817C39.4234 31.6132 36.5089 30.118 34.7348 27.6752C32.7285 24.9796 32.2427 21.2732 33.3409 18.1144C34.4392 14.7239 37.5437 12.1336 41.0496 11.5229ZM41.6832 15.5241C40.5427 15.819 39.4867 16.4718 38.7264 17.3984C36.6778 19.8412 36.8045 23.8214 39.0643 26.0958C40.3526 27.4014 42.2956 28.0121 44.0908 27.6541C45.7592 27.3593 47.2165 26.2432 48.019 24.769C49.4129 22.263 49.0117 18.8093 46.8786 16.8509C45.5058 15.5873 43.4995 15.0608 41.6832 15.5241Z" fill="#CFCFDE"/>
<path d="M63.4363 11.5229C66.6254 10.9122 70.1101 11.7967 72.4966 14.0289C76.3826 17.5037 76.805 24.0109 73.4892 28.0121C71.4829 30.5392 68.2305 31.9291 65.0203 31.7817C61.958 31.6975 58.9379 30.1812 57.1216 27.6752C55.073 24.9165 54.6295 21.1258 55.791 17.9038C56.9526 14.6186 59.9938 12.1126 63.4363 11.5229ZM64.0699 15.5241C62.9294 15.819 61.8735 16.4718 61.1132 17.3773C59.0857 19.7781 59.1702 23.695 61.3455 25.9905C62.6338 27.3593 64.6401 28.0332 66.4987 27.6541C68.146 27.3382 69.6243 26.2432 70.4269 24.769C71.7997 22.242 71.3984 18.7883 69.2442 16.8298C67.8714 15.5663 65.8651 15.0608 64.0699 15.5241Z" fill="#CFCFDE"/>
<path d="M82.4228 12.7443C84.8516 11.2281 88.0829 10.8069 90.7017 12.1126C91.5254 12.4706 92.2012 13.0813 92.8559 13.692C92.877 13.1234 92.8559 12.5337 92.877 11.9441C94.292 11.9651 95.707 11.9441 97.1432 11.9651V30.5392C97.122 33.34 96.404 36.3093 94.3765 38.3521C92.1589 40.6054 88.7587 41.3003 85.6964 40.837C82.4228 40.3527 79.5717 37.973 78.3045 34.9616C79.5717 34.3509 80.9022 33.8665 82.2116 33.2979C82.9508 35.0247 84.4503 36.4989 86.3299 36.8358C88.2096 37.1728 90.3849 36.7095 91.6098 35.1511C92.9192 33.5506 92.9192 31.3605 92.8559 29.402C91.8844 30.3496 90.7651 31.192 89.4134 31.5079C86.4778 32.3292 83.2465 31.3184 80.9867 29.3388C78.7058 27.3593 77.3541 24.3057 77.4808 21.2732C77.5442 17.8406 79.4872 14.5343 82.4228 12.7443ZM86.7946 15.4399C85.5063 15.6505 84.3025 16.3665 83.4788 17.3562C81.4936 19.7149 81.4936 23.4844 83.4999 25.8009C84.6404 27.1697 86.4778 27.9279 88.2518 27.7383C89.9203 27.5699 91.462 26.5169 92.2857 25.0638C93.6796 22.5999 93.4472 19.2516 91.5676 17.1035C90.406 15.7768 88.5475 15.124 86.7946 15.4399Z" fill="#CFCFDE"/>
<path d="M110.322 13.8184C112.856 11.4598 116.763 10.6595 120.016 11.902C123.099 13.0603 125.063 15.9875 126.056 18.9989C121.473 20.8942 116.911 22.7685 112.328 24.6638C112.962 25.8642 113.933 26.9592 115.243 27.4015C117.08 28.0543 119.277 27.8226 120.818 26.6012C121.431 26.1379 121.916 25.5272 122.381 24.9376C123.543 25.7167 124.704 26.4749 125.866 27.254C124.219 29.7179 121.452 31.4448 118.474 31.7186C115.179 32.1187 111.673 30.8551 109.54 28.2859C106.035 24.2426 106.372 17.4616 110.322 13.8184ZM112.582 17.7143C111.864 18.7462 111.568 20.0097 111.589 21.2522C114.651 19.9887 117.714 18.7251 120.776 17.4405C120.269 16.2612 119.044 15.5452 117.798 15.3557C115.792 14.9977 113.701 16.0717 112.582 17.7143Z" fill="#CFCFDE"/>
</g>
<defs>
<clipPath id="clip0_24_305">
<rect width="125.873" height="40.967" fill="white" transform="translate(0.183258)"/>
</clipPath>
</defs>
</svg>
